<?xml version="1.0" encoding="UTF-8"?>
<svg xmlns="http://www.w3.org/2000/svg" version="1.1" width="100" height="100" viewBox="0 0 100 100"><rect x="0" y="0" width="100" height="100" fill="#ffffff"/><g transform="scale(2.041)"><g transform="translate(0,0)"><path fill-rule="evenodd" d="M9 0L9 2L8 2L8 3L9 3L9 2L10 2L10 4L9 4L9 6L8 6L8 8L4 8L4 9L3 9L3 8L0 8L0 11L1 11L1 10L3 10L3 12L4 12L4 13L3 13L3 16L4 16L4 17L5 17L5 16L4 16L4 15L7 15L7 16L6 16L6 17L7 17L7 16L8 16L8 18L9 18L9 16L12 16L12 17L10 17L10 19L11 19L11 18L12 18L12 19L13 19L13 18L14 18L14 19L16 19L16 22L18 22L18 23L16 23L16 25L17 25L17 26L16 26L16 27L14 27L14 25L15 25L15 24L14 24L14 23L15 23L15 22L14 22L14 23L13 23L13 25L11 25L11 26L10 26L10 27L9 27L9 23L10 23L10 24L11 24L11 23L12 23L12 21L13 21L13 20L12 20L12 21L11 21L11 20L9 20L9 19L7 19L7 18L5 18L5 19L4 19L4 18L2 18L2 16L1 16L1 17L0 17L0 19L3 19L3 20L2 20L2 21L4 21L4 20L5 20L5 22L4 22L4 25L0 25L0 26L2 26L2 27L1 27L1 28L2 28L2 27L3 27L3 28L4 28L4 27L5 27L5 28L6 28L6 29L5 29L5 30L6 30L6 31L5 31L5 33L4 33L4 32L3 32L3 31L4 31L4 29L2 29L2 30L3 30L3 31L1 31L1 30L0 30L0 32L1 32L1 33L0 33L0 35L1 35L1 34L2 34L2 33L4 33L4 34L3 34L3 35L4 35L4 36L6 36L6 37L7 37L7 38L5 38L5 37L2 37L2 38L1 38L1 37L0 37L0 38L1 38L1 40L0 40L0 41L3 41L3 40L4 40L4 39L2 39L2 38L5 38L5 39L7 39L7 40L6 40L6 41L7 41L7 40L11 40L11 39L10 39L10 38L11 38L11 37L10 37L10 36L11 36L11 35L9 35L9 34L8 34L8 33L9 33L9 32L10 32L10 34L11 34L11 33L12 33L12 31L13 31L13 34L14 34L14 35L15 35L15 36L14 36L14 37L15 37L15 36L16 36L16 38L17 38L17 35L15 35L15 34L16 34L16 33L15 33L15 32L16 32L16 31L17 31L17 30L18 30L18 31L20 31L20 32L21 32L21 34L24 34L24 31L25 31L25 30L26 30L26 33L25 33L25 35L23 35L23 36L25 36L25 38L26 38L26 40L24 40L24 39L23 39L23 40L22 40L22 38L24 38L24 37L21 37L21 38L20 38L20 40L17 40L17 39L16 39L16 40L13 40L13 39L12 39L12 41L15 41L15 42L16 42L16 43L14 43L14 42L11 42L11 41L8 41L8 45L9 45L9 46L8 46L8 49L9 49L9 48L10 48L10 49L11 49L11 48L12 48L12 49L15 49L15 48L16 48L16 47L17 47L17 48L18 48L18 49L19 49L19 48L20 48L20 47L21 47L21 49L23 49L23 48L24 48L24 49L25 49L25 47L26 47L26 46L27 46L27 48L26 48L26 49L29 49L29 47L28 47L28 46L27 46L27 43L28 43L28 45L29 45L29 46L30 46L30 45L32 45L32 46L31 46L31 47L30 47L30 49L33 49L33 48L31 48L31 47L33 47L33 42L30 42L30 43L31 43L31 44L29 44L29 43L28 43L28 42L29 42L29 40L30 40L30 41L31 41L31 40L32 40L32 41L35 41L35 42L34 42L34 44L35 44L35 45L37 45L37 42L36 42L36 41L39 41L39 42L40 42L40 43L39 43L39 44L38 44L38 45L39 45L39 47L38 47L38 48L40 48L40 49L42 49L42 47L43 47L43 48L44 48L44 49L45 49L45 46L46 46L46 44L45 44L45 43L47 43L47 46L49 46L49 45L48 45L48 44L49 44L49 42L48 42L48 40L49 40L49 38L48 38L48 37L49 37L49 33L48 33L48 32L49 32L49 28L48 28L48 27L49 27L49 26L48 26L48 24L49 24L49 18L48 18L48 17L49 17L49 16L48 16L48 15L49 15L49 14L48 14L48 13L49 13L49 12L48 12L48 13L45 13L45 11L46 11L46 10L47 10L47 11L49 11L49 10L48 10L48 9L47 9L47 8L46 8L46 9L45 9L45 10L44 10L44 11L43 11L43 12L42 12L42 11L40 11L40 12L39 12L39 11L37 11L37 10L36 10L36 11L35 11L35 10L33 10L33 8L34 8L34 7L35 7L35 9L38 9L38 8L36 8L36 7L37 7L37 4L36 4L36 3L35 3L35 2L34 2L34 1L36 1L36 2L39 2L39 4L40 4L40 3L41 3L41 0L40 0L40 1L38 1L38 0L32 0L32 1L33 1L33 2L34 2L34 3L33 3L33 5L31 5L31 4L32 4L32 3L31 3L31 2L30 2L30 1L31 1L31 0L28 0L28 1L27 1L27 0L24 0L24 1L23 1L23 0L22 0L22 1L21 1L21 0L19 0L19 2L18 2L18 1L17 1L17 0L14 0L14 1L13 1L13 6L12 6L12 7L13 7L13 6L14 6L14 7L15 7L15 6L16 6L16 9L17 9L17 11L16 11L16 10L15 10L15 11L14 11L14 9L15 9L15 8L11 8L11 4L12 4L12 2L10 2L10 0ZM14 1L14 2L15 2L15 3L14 3L14 4L15 4L15 3L16 3L16 5L17 5L17 7L18 7L18 8L19 8L19 10L18 10L18 11L19 11L19 12L20 12L20 13L19 13L19 14L21 14L21 15L20 15L20 16L19 16L19 15L18 15L18 14L17 14L17 13L16 13L16 14L17 14L17 15L16 15L16 16L15 16L15 12L16 12L16 11L15 11L15 12L14 12L14 16L13 16L13 15L12 15L12 14L13 14L13 10L12 10L12 9L5 9L5 11L4 11L4 12L5 12L5 13L4 13L4 14L9 14L9 15L8 15L8 16L9 16L9 15L12 15L12 16L13 16L13 17L12 17L12 18L13 18L13 17L14 17L14 16L15 16L15 18L18 18L18 17L16 17L16 16L19 16L19 18L20 18L20 19L21 19L21 20L19 20L19 21L18 21L18 19L17 19L17 21L18 21L18 22L20 22L20 24L19 24L19 26L18 26L18 27L20 27L20 29L19 29L19 28L18 28L18 30L20 30L20 31L21 31L21 32L23 32L23 31L24 31L24 30L25 30L25 29L28 29L28 30L27 30L27 31L28 31L28 30L29 30L29 29L28 29L28 26L29 26L29 28L30 28L30 27L31 27L31 28L32 28L32 27L33 27L33 29L30 29L30 34L28 34L28 33L26 33L26 34L27 34L27 35L26 35L26 36L27 36L27 37L26 37L26 38L27 38L27 39L28 39L28 38L27 38L27 37L28 37L28 35L30 35L30 36L29 36L29 37L30 37L30 40L31 40L31 38L32 38L32 37L30 37L30 36L31 36L31 35L32 35L32 34L33 34L33 35L34 35L34 36L35 36L35 35L38 35L38 36L37 36L37 38L36 38L36 39L35 39L35 37L33 37L33 39L34 39L34 40L35 40L35 41L36 41L36 39L37 39L37 38L39 38L39 39L38 39L38 40L39 40L39 41L40 41L40 40L43 40L43 39L44 39L44 40L48 40L48 39L45 39L45 38L47 38L47 36L48 36L48 34L47 34L47 33L46 33L46 32L47 32L47 31L46 31L46 30L47 30L47 29L48 29L48 28L47 28L47 26L46 26L46 25L45 25L45 27L44 27L44 28L43 28L43 30L45 30L45 31L43 31L43 33L42 33L42 32L41 32L41 31L42 31L42 28L41 28L41 30L40 30L40 31L39 31L39 29L40 29L40 24L39 24L39 21L38 21L38 20L39 20L39 18L41 18L41 19L40 19L40 22L41 22L41 21L42 21L42 22L45 22L45 24L48 24L48 22L47 22L47 21L48 21L48 20L47 20L47 19L45 19L45 18L47 18L47 17L48 17L48 16L47 16L47 14L46 14L46 16L45 16L45 14L44 14L44 16L45 16L45 18L44 18L44 17L42 17L42 16L43 16L43 13L44 13L44 12L43 12L43 13L42 13L42 12L41 12L41 13L38 13L38 12L37 12L37 13L32 13L32 11L33 11L33 12L34 12L34 11L33 11L33 10L32 10L32 11L30 11L30 12L29 12L29 13L30 13L30 18L29 18L29 21L30 21L30 22L29 22L29 23L30 23L30 24L29 24L29 25L27 25L27 27L24 27L24 30L23 30L23 29L22 29L22 31L21 31L21 28L23 28L23 27L22 27L22 24L21 24L21 23L22 23L22 22L24 22L24 19L25 19L25 18L23 18L23 17L24 17L24 16L23 16L23 15L24 15L24 14L27 14L27 15L28 15L28 12L27 12L27 11L29 11L29 10L31 10L31 9L28 9L28 8L27 8L27 9L26 9L26 11L25 11L25 12L27 12L27 13L24 13L24 12L23 12L23 11L24 11L24 10L25 10L25 9L24 9L24 10L23 10L23 9L22 9L22 12L21 12L21 11L19 11L19 10L21 10L21 7L22 7L22 4L25 4L25 3L26 3L26 4L27 4L27 5L28 5L28 6L27 6L27 7L28 7L28 6L29 6L29 7L30 7L30 8L33 8L33 7L34 7L34 6L35 6L35 7L36 7L36 4L35 4L35 3L34 3L34 4L35 4L35 5L34 5L34 6L33 6L33 7L32 7L32 6L31 6L31 7L30 7L30 4L31 4L31 3L30 3L30 2L29 2L29 1L28 1L28 4L27 4L27 3L26 3L26 2L27 2L27 1L24 1L24 2L25 2L25 3L21 3L21 2L20 2L20 3L21 3L21 7L20 7L20 6L19 6L19 3L16 3L16 2L15 2L15 1ZM29 3L29 4L28 4L28 5L29 5L29 4L30 4L30 3ZM23 5L23 8L26 8L26 5ZM38 5L38 7L39 7L39 8L41 8L41 10L42 10L42 9L43 9L43 8L41 8L41 6L40 6L40 7L39 7L39 5ZM9 6L9 8L10 8L10 6ZM18 6L18 7L19 7L19 8L20 8L20 7L19 7L19 6ZM24 6L24 7L25 7L25 6ZM6 10L6 11L7 11L7 12L6 12L6 13L9 13L9 14L10 14L10 12L12 12L12 11L10 11L10 10L8 10L8 11L7 11L7 10ZM8 11L8 12L9 12L9 11ZM1 13L1 15L2 15L2 13ZM21 13L21 14L22 14L22 15L23 15L23 14L22 14L22 13ZM31 13L31 14L32 14L32 15L31 15L31 17L33 17L33 18L34 18L34 17L35 17L35 18L36 18L36 19L35 19L35 20L33 20L33 19L31 19L31 20L30 20L30 21L31 21L31 22L32 22L32 23L31 23L31 24L30 24L30 25L29 25L29 26L30 26L30 25L31 25L31 27L32 27L32 25L33 25L33 24L34 24L34 25L35 25L35 26L34 26L34 29L36 29L36 30L35 30L35 31L34 31L34 33L35 33L35 34L34 34L34 35L35 35L35 34L37 34L37 32L38 32L38 31L37 31L37 30L38 30L38 26L36 26L36 25L39 25L39 24L38 24L38 23L37 23L37 22L38 22L38 21L37 21L37 20L38 20L38 19L37 19L37 17L38 17L38 16L36 16L36 15L37 15L37 14L38 14L38 13L37 13L37 14L36 14L36 15L35 15L35 16L32 16L32 15L33 15L33 14L32 14L32 13ZM41 13L41 14L40 14L40 15L41 15L41 16L42 16L42 13ZM21 16L21 18L22 18L22 19L23 19L23 18L22 18L22 17L23 17L23 16ZM26 17L26 20L25 20L25 22L27 22L27 24L28 24L28 22L27 22L27 21L28 21L28 17ZM41 17L41 18L42 18L42 17ZM5 19L5 20L7 20L7 21L6 21L6 22L9 22L9 20L7 20L7 19ZM41 19L41 20L43 20L43 21L45 21L45 22L46 22L46 23L47 23L47 22L46 22L46 21L45 21L45 19ZM0 20L0 22L1 22L1 24L2 24L2 22L1 22L1 20ZM14 20L14 21L15 21L15 20ZM22 20L22 21L21 21L21 22L22 22L22 21L23 21L23 20ZM26 20L26 21L27 21L27 20ZM31 20L31 21L32 21L32 20ZM33 21L33 23L32 23L32 24L33 24L33 23L34 23L34 24L37 24L37 23L35 23L35 22L36 22L36 21ZM5 23L5 26L8 26L8 23ZM23 23L23 26L26 26L26 23ZM41 23L41 26L44 26L44 23ZM6 24L6 25L7 25L7 24ZM20 24L20 25L21 25L21 24ZM24 24L24 25L25 25L25 24ZM42 24L42 25L43 25L43 24ZM3 26L3 27L4 27L4 26ZM12 26L12 27L11 27L11 29L10 29L10 30L9 30L9 27L8 27L8 29L6 29L6 30L7 30L7 31L6 31L6 32L8 32L8 30L9 30L9 31L10 31L10 32L11 32L11 31L12 31L12 30L13 30L13 31L14 31L14 30L15 30L15 28L14 28L14 30L13 30L13 26ZM20 26L20 27L21 27L21 26ZM35 26L35 27L36 27L36 26ZM6 27L6 28L7 28L7 27ZM16 27L16 28L17 28L17 27ZM44 28L44 29L45 29L45 28ZM16 29L16 30L17 30L17 29ZM32 30L32 31L31 31L31 34L32 34L32 33L33 33L33 32L32 32L32 31L33 31L33 30ZM17 32L17 34L18 34L18 35L19 35L19 36L18 36L18 37L19 37L19 36L20 36L20 33L19 33L19 32ZM35 32L35 33L36 33L36 32ZM40 32L40 33L39 33L39 34L40 34L40 36L42 36L42 37L39 37L39 36L38 36L38 37L39 37L39 38L41 38L41 39L43 39L43 38L42 38L42 37L45 37L45 36L44 36L44 35L45 35L45 34L42 34L42 33L41 33L41 32ZM5 33L5 34L4 34L4 35L5 35L5 34L7 34L7 35L6 35L6 36L7 36L7 35L8 35L8 34L7 34L7 33ZM14 33L14 34L15 34L15 33ZM40 33L40 34L41 34L41 33ZM46 34L46 35L47 35L47 34ZM12 35L12 38L13 38L13 35ZM21 35L21 36L22 36L22 35ZM42 35L42 36L43 36L43 35ZM8 37L8 39L9 39L9 37ZM14 38L14 39L15 39L15 38ZM18 38L18 39L19 39L19 38ZM16 40L16 42L17 42L17 40ZM20 40L20 41L19 41L19 42L18 42L18 43L19 43L19 42L21 42L21 43L22 43L22 40ZM23 41L23 44L26 44L26 41ZM27 41L27 42L28 42L28 41ZM41 41L41 44L44 44L44 41ZM46 41L46 42L47 42L47 41ZM9 42L9 44L10 44L10 43L11 43L11 42ZM24 42L24 43L25 43L25 42ZM35 42L35 43L36 43L36 42ZM42 42L42 43L43 43L43 42ZM12 43L12 44L13 44L13 43ZM16 43L16 44L17 44L17 43ZM14 44L14 46L13 46L13 45L12 45L12 46L13 46L13 47L12 47L12 48L13 48L13 47L14 47L14 46L15 46L15 44ZM18 44L18 47L20 47L20 46L21 46L21 45L22 45L22 44L21 44L21 45L20 45L20 44ZM10 45L10 46L9 46L9 47L10 47L10 48L11 48L11 47L10 47L10 46L11 46L11 45ZM16 45L16 46L17 46L17 45ZM23 45L23 46L22 46L22 47L24 47L24 45ZM41 45L41 46L43 46L43 45ZM36 46L36 47L34 47L34 49L35 49L35 48L36 48L36 49L37 49L37 46ZM40 47L40 48L41 48L41 47ZM47 47L47 48L46 48L46 49L49 49L49 48L48 48L48 47ZM0 0L0 7L7 7L7 0ZM1 1L1 6L6 6L6 1ZM2 2L2 5L5 5L5 2ZM42 0L42 7L49 7L49 0ZM43 1L43 6L48 6L48 1ZM44 2L44 5L47 5L47 2ZM0 42L0 49L7 49L7 42ZM1 43L1 48L6 48L6 43ZM2 44L2 47L5 47L5 44Z" fill="#000000"/></g></g></svg>
